# xmcd CD database file generated by OrangeCD 6.4
#
# Track frame offsets:
#	150
#	23900
#	42179
#	67136
#	89178
#	106475
#	133189
#	154476
#	172994
#	198417
#	237198
#	261830
#
# Disc length: 3823 seconds
#
# Revision: 0
# Processed by: cddbd v1.5.2PL0 Copyright (c) Steve Scherf et al.
# Submitted via: OrangeCD 6.4
#
DISCID=b00eed0c
DTITLE=Eli Cook Band - ELECTRIC HOLY FIREWATER
DYEAR=2007
DGENRE=
TTITLE0=Santeria Shakedown
TTITLE1=Bury Me
TTITLE2=Shotgun Blues
TTITLE3=Light That Gasoline
TTITLE4=Castles Made Of Sand
TTITLE5=Backdoor Man
TTITLE6=Black Tattoo
TTITLE7=Firefly
TTITLE8=Deadman
TTITLE9=Curb Stomp
TTITLE10=Rosie
TTITLE11=Roll On
EXTD=
EXTT0=
EXTT1=
EXTT2=
EXTT3=
EXTT4=
EXTT5=
EXTT6=
EXTT7=
EXTT8=
EXTT9=
EXTT10=
EXTT11=
PLAYORDER=
